<svg width="247" height="58" viewBox="0 0 247 58" fill="none" xmlns="http://www.w3.org/2000/svg">
<g clip-path="url(#clip0_334_3168)">
<path d="M101.574 42.9865L99.2122 37.7177H84.9787L82.6172 42.9865H75.0246L88.4351 15.0208H95.949L109.36 42.9865H101.574ZM92.1348 21.832L87.2186 32.766H96.9723L92.1348 21.832Z" fill="white"/>
<path d="M112.465 42.9865V15.0208H119.428V37.833H134.842V42.9865H112.465Z" fill="white"/>
<path d="M169.213 42.9865C169.213 41.5449 169.371 21.4716 169.371 21.4716L160.44 42.9865H154.114L145.104 21.4716C145.104 21.4716 145.262 41.9125 145.262 42.9865H138.657V15.0208H148.725L157.313 35.5409L165.85 15.0208H175.797V42.9865H169.213Z" fill="white"/>
<path d="M205.631 42.9865L203.269 37.7177H189.028L186.674 42.9865H179.081L192.499 15.0208H200.013L213.424 42.9865H205.631ZM196.192 21.832L191.268 32.766H201.029L196.192 21.832Z" fill="white"/>
<path d="M238.778 42.9865L231.385 31.7137H223.442V42.9865H216.515V15.0208H235.629C237.18 14.9362 238.735 15.1091 240.23 15.5325C243.808 16.5992 245.776 19.6913 245.776 23.3744C245.806 24.6399 245.562 25.8968 245.061 27.0575C243.801 29.9406 241.404 30.7839 238.57 31.2956L247.029 42.9865H238.778ZM223.442 26.7836H234.892C236.187 26.7836 238.742 26.4665 238.742 23.4537C238.742 20.4409 236.545 19.9292 234.62 19.9292H223.442V26.7836Z" fill="white"/>
<path d="M7.793 43.1522C7.70197 43.2039 7.63457 43.2893 7.60516 43.3903C7.57575 43.4913 7.58666 43.5998 7.63556 43.6928L9.40312 47.0227C9.44758 47.1086 9.52119 47.1754 9.61051 47.2112C9.69984 47.2469 9.79893 47.2491 9.88973 47.2174L29.34 40.4349L21.9549 34.9067L7.793 43.1522Z" fill="white"/>
<path d="M26.7495 44.5001L20.6811 47.9525L23.1214 57.6612C23.1443 57.7478 23.1942 57.8246 23.2638 57.8804C23.3334 57.9362 23.4189 57.968 23.5078 57.9712H26.3058C26.359 57.9721 26.4119 57.9624 26.4614 57.9425C26.5108 57.9227 26.5558 57.8931 26.5938 57.8555C26.6318 57.8179 26.662 57.7731 26.6825 57.7237C26.7031 57.6742 26.7137 57.6212 26.7137 57.5675L26.7495 44.5001Z" fill="white"/>
<path d="M50.8584 43.1522L36.6965 34.9067L29.34 40.4349L48.7975 47.2174C48.8883 47.2491 48.9874 47.2469 49.0767 47.2112C49.166 47.1754 49.2396 47.1086 49.2841 47.0227L51.0516 43.6928C51.0745 43.6446 51.0877 43.5923 51.0904 43.5389C51.0931 43.4855 51.0852 43.4321 51.0672 43.3818C51.0492 43.3316 51.0215 43.2854 50.9857 43.2459C50.9498 43.2065 50.9066 43.1747 50.8584 43.1522Z" fill="white"/>
<path d="M31.8947 44.5001L37.9703 47.9525L35.53 57.6612C35.5057 57.7484 35.4544 57.8254 35.3837 57.8811C35.3129 57.9369 35.2263 57.9684 35.1365 57.9712H32.3456C32.2924 57.9721 32.2395 57.9624 32.19 57.9425C32.1406 57.9227 32.0955 57.8931 32.0576 57.8555C32.0196 57.8179 31.9894 57.7731 31.9689 57.7237C31.9483 57.6742 31.9377 57.6212 31.9377 57.5675L31.8947 44.5001Z" fill="white"/>
<path d="M40.6681 20.6932L56.2255 34.2724C56.2967 34.3361 56.3435 34.4228 56.3579 34.5176C56.3723 34.6123 56.3533 34.7092 56.3042 34.7914L54.322 37.9988C54.2955 38.044 54.2603 38.0835 54.2185 38.1149C54.1767 38.1463 54.1291 38.1691 54.0785 38.1818C54.0279 38.1946 53.9753 38.1971 53.9237 38.1891C53.8721 38.1812 53.8226 38.1631 53.7781 38.1357L39.609 29.9046L40.6681 20.6932Z" fill="white"/>
<path d="M45.4556 20.9022L51.4595 24.506L58.6156 17.5218C58.6785 17.4573 58.7193 17.3744 58.7321 17.2849C58.745 17.1955 58.7293 17.1043 58.6872 17.0245L57.3132 14.5739C57.2865 14.5269 57.2509 14.4858 57.2083 14.4528C57.1658 14.4197 57.1172 14.3955 57.0653 14.3814C57.0135 14.3674 56.9594 14.3637 56.9061 14.3708C56.8529 14.3779 56.8015 14.3954 56.755 14.4225L45.4556 20.9022Z" fill="white"/>
<path d="M40.6896 20.7292L36.7895 0.367588C36.7724 0.2722 36.7217 0.186208 36.6468 0.125331C36.5719 0.0644532 36.4778 0.0327569 36.3816 0.0360359L32.6318 0.165774C32.5274 0.169452 32.4283 0.213377 32.355 0.288483C32.2818 0.363589 32.24 0.464146 32.2382 0.569402V17.0461L40.6896 20.7292Z" fill="white"/>
<path d="M42.8865 16.4335L42.815 9.4132L52.3898 6.6815C52.476 6.65793 52.5675 6.6635 52.6502 6.69735C52.7329 6.73121 52.8024 6.79147 52.8478 6.86889L54.279 9.29787C54.3068 9.34388 54.3249 9.3951 54.3323 9.4484C54.3398 9.5017 54.3364 9.55597 54.3223 9.6079C54.3082 9.65982 54.2838 9.70832 54.2506 9.75044C54.2173 9.79256 54.1758 9.82741 54.1288 9.85286L42.8865 16.4335Z" fill="white"/>
<path d="M18.0262 20.6932L21.9263 0.331556C21.9448 0.23683 21.9958 0.151683 22.0704 0.0910558C22.145 0.0304283 22.2384 -0.00180764 22.3342 3.7166e-06L26.084 0.122534C26.1897 0.126271 26.2898 0.1712 26.3632 0.247845C26.4366 0.324491 26.4776 0.426862 26.4776 0.53337V17.0029L18.0262 20.6932Z" fill="white"/>
<path d="M15.8365 16.3974L15.9009 9.36995L6.326 6.64545C6.23982 6.62189 6.14834 6.62746 6.06561 6.66131C5.98287 6.69517 5.91345 6.75543 5.86801 6.83285L4.43679 9.25463C4.40989 9.30145 4.39244 9.35316 4.38544 9.4068C4.37844 9.46043 4.38202 9.51493 4.39598 9.56716C4.40995 9.6194 4.43401 9.66834 4.4668 9.71119C4.49959 9.75403 4.54046 9.78993 4.58706 9.81682L15.8365 16.3974Z" fill="white"/>
<path d="M18.0477 20.6499L2.49033 34.2364C2.41792 34.2992 2.3702 34.386 2.35576 34.4812C2.34133 34.5763 2.36114 34.6736 2.41161 34.7553L4.39385 37.9627C4.44873 38.0526 4.53639 38.1173 4.63805 38.1429C4.73971 38.1685 4.84729 38.153 4.93772 38.0997L19.1068 29.8613L18.0477 20.6499Z" fill="white"/>
<path d="M13.2602 20.9022L7.25628 24.47L0.100174 17.4786C0.0379354 17.4152 -0.00257643 17.3335 -0.0154499 17.2453C-0.0283234 17.1572 -0.0128848 17.0672 0.0286131 16.9884L1.43121 14.5234C1.45791 14.4765 1.49355 14.4353 1.53609 14.4023C1.57863 14.3693 1.62722 14.345 1.67908 14.331C1.73094 14.3169 1.78505 14.3133 1.8383 14.3203C1.89155 14.3274 1.9429 14.345 1.98938 14.3721L13.2602 20.9022Z" fill="white"/>
</g>
<defs>
<clipPath id="clip0_334_3168">
<rect width="247" height="58" fill="white"/>
</clipPath>
</defs>
</svg>
